<?xml version="1.0" encoding="utf-8"?>
<!-- Generator: Adobe Illustrator 26.4.1, SVG Export Plug-In . SVG Version: 6.00 Build 0)  -->
<svg version="1.1" id="background" xmlns="http://www.w3.org/2000/svg" xmlns:xlink="http://www.w3.org/1999/xlink" x="0px" y="0px"
	 viewBox="0 0 1152 576" style="enable-background:new 0 0 1152 576;" xml:space="preserve">
<style type="text/css">
	.st0{fill:#D0A465;}
	.st1{fill:#EAE7D1;}
	.st2{fill:#CAC596;}
	.st3{opacity:0.3;fill:#C5BA83;}
	.st4{fill:#C5BA83;}
	.st5{fill:none;stroke:#9F9D54;stroke-width:4;stroke-linecap:round;stroke-miterlimit:10;}
	.st6{fill:none;stroke:#855DA7;stroke-width:22;stroke-miterlimit:10;}
	.st7{fill:none;stroke:#ABC99B;stroke-width:12;stroke-linecap:round;stroke-miterlimit:10;}
	.st8{fill:#D0A465;stroke:#FFFFFF;stroke-width:5;stroke-miterlimit:10;}
	.st9{fill:#D0A465;stroke:#FFFFFF;stroke-width:4;stroke-miterlimit:10;}
	.st10{fill:none;stroke:#FFFFFF;stroke-width:7;stroke-miterlimit:10;}
</style>
<path class="st0" d="M0,401.2"/>
<rect class="st1" width="1152" height="576"/>
<path class="st2" d="M0,80.6c0,0-17.6,360.4,389.1,363c406.6,2.5,409.2-495.3,409.2-495.3S824.8-182.4,903.4-36
	s263.5,166.7,263.5,166.7v-296.4l-1167-16.5L0,80.6z"/>
<path class="st3" d="M617.1,576c0,0,271.1-17.1,310.4-180.5s276.2-216.6,276.2-216.6L1188,576l-386,76.6L617.1,576z"/>
<path class="st4" d="M1000.9,513.3"/>
<path class="st5" d="M-37.1,183.1c0.8,29.2,10.8,57.4,28.8,80.4c46.3,59.4,150.1,154.1,306.1,85.2C468,273.4,500.6,141.9,506.8,87.8
	c1.3-11.3,1.2-22.7-0.4-34c-3.6-25.6-5.7-92.5,69.6-89.8c73,2.6,83.3,92.1,84.3,130.5c0.2,8.5-0.3,17-1.7,25.4
	c-5.4,33.3-16,156.2,121.9,168C922.8,300.2,940.3,93.8,942.4,48.9c0.2-4.4,0.2-8.8,0-13.1c-1.3-26.9,0.2-157.1,163.7,4.6
	c122.9,121.5,132.7-0.9,126.3-92.2c-3.4-48.1-32-90.9-75-112.6l-173.9-87.7c-25.7-13-54.8-17.5-83.2-13L73.7-135.1
	C5.6-124.3-44-64.7-42.1,4.3L-37.1,183.1z"/>
<polyline class="st6" points="-36,240.9 310.5,380.3 500.5,158.6 617.1,259.9 779.2,52.9 1011.1,415.7 1188,130.7 "/>
<path class="st7" d="M-54.3,458.8c0,0,356,202.7,679-15.2c3.2-2.2,6.4-4.4,9.5-6.5C793.7,326.7,740.6,78.7,550,42.8
	C425.2,19.2,323-18.6,498-69.4c236.1-68.5,447.1,175.5,537.4,301.1c35.4,49.2,79.8,91.3,130.9,123.8l96.7,61.6L1188,697L-82.2,671.6
	L-54.3,458.8z"/>
<rect x="1044.2" y="465.9" transform="matrix(0.7071 -0.7071 0.7071 0.7071 -40.3125 915.1795)" class="st8" width="80.6" height="80.6"/>
<rect x="996.4" y="457" transform="matrix(0.7071 -0.7071 0.7071 0.7071 -38.6802 856.2311)" class="st9" width="35.6" height="35.6"/>
<rect x="29.4" y="28.3" transform="matrix(0.7071 -0.7071 0.7071 0.7071 -18.4135 45.9666)" class="st9" width="33.8" height="33.8"/>
<polyline class="st10" points="-36,240.9 310.5,380.3 500.5,158.6 617.1,259.9 779.2,52.9 1011.1,415.7 1188,130.7 "/>
</svg>
